#!OML:ASF H:\Terrain\Patient Classification 1\Walking\liu\liu.ASF
:FULLY-SPECIFIED
:DEGREES
259
root 9.710380 16.718201 -0.282263 8.251770 -7.540740 1.041120
lowerback -6.233557 1.267948 -2.644917
upperback -2.147508 1.806662 1.615020
thorax 1.159785 0.912033 3.262380
lowerneck -22.471350 -5.282365 -14.114871
upperneck 20.584299 -6.369154 14.552340
head 11.131890 -2.341768 6.622176
rclavicle -0.000000 -0.000000
rhumerus -50.567112 10.638584 -94.617599
rradius 43.682430
rwrist -23.923460
rhand -35.123993 -27.060331
rfingers 7.837522
rthumb -5.700212 -59.968590
lclavicle -0.000000 -0.000000
lhumerus -40.373299 -9.450013 98.223724
lradius 24.903009
lwrist -2.208261
lhand -10.359504 -24.579720
lfingers 7.837522
lthumb 18.198730 7.666428
rfemur -8.862865 -2.015035 17.522341
rtibia 67.263573
rfoot 5.996309 -9.861466
rtoes -16.757950
lfemur -34.903881 9.946486 -30.162222
ltibia 39.634323
lfoot -13.507670 7.567395
ltoes -0.189802
260
root 9.729450 16.744499 -0.150326 8.113260 -7.435080 1.400670
lowerback -6.313274 1.071561 -2.999018
upperback -1.994641 1.567522 1.574353
thorax 1.369896 0.787315 3.409417
lowerneck -22.658020 -5.222954 -14.105190
upperneck 20.719601 -6.280934 14.562131
head 11.201191 -2.293247 6.643736
rclavicle 0.000000 0.000000
rhumerus -50.055393 9.764789 -93.924492
rradius 43.515339
rwrist -22.507101
rhand -33.861519 -26.025230
rfingers 7.837522
rthumb -4.481169 -58.960114
lclavicle 0.000000 0.000000
lhumerus -39.481640 -10.401699 98.501923
lradius 25.256220
lwrist -1.349447
lhand -11.245630 -24.557720
lfingers 7.837522
lthumb 17.345461 7.757783
rfemur -10.279754 -2.196051 17.248989
rtibia 68.778053
rfoot 4.083024 -10.953360
rtoes -17.045380
lfemur -33.824890 9.643095 -30.624880
ltibia 38.982243
lfoot -13.678391 7.814257
ltoes -1.905937
261
root 9.754940 16.772699 -0.013225 7.978110 -7.272360 1.396560
lowerback -6.413671 0.915807 -2.798345
upperback -1.819609 1.351317 1.573847
thorax 1.626515 0.672476 3.286404
lowerneck -22.787600 -5.159451 -13.823481
upperneck 20.723339 -6.211480 14.337620
head 11.199210 -2.260720 6.521438
rclavicle 0.000000 0.000000
rhumerus -50.032951 9.619302 -93.744095
rradius 43.937962
rwrist -22.588501
rhand -33.688160 -25.089792
rfingers 7.837522
rthumb -4.313793 -58.027863
lclavicle 0.000000 0.000000
lhumerus -38.434879 -11.167861 98.513695
lradius 25.207930
lwrist -0.987527
lhand -12.059191 -25.356651
lfingers 7.837522
lthumb 16.561930 7.019133
rfemur -11.542631 -2.325026 17.335890
rtibia 69.987282
rfoot 1.893969 -11.574310
rtoes -15.021160
lfemur -32.692883 9.388973 -30.673830
ltibia 38.442913
lfoot -14.018291 7.993216
ltoes -2.741222
262
root 9.778770 16.812901 0.121056 7.874420 -7.148840 0.933813
lowerback -6.343964 0.875207 -2.101968
upperback -1.729387 1.253978 1.653146
thorax 1.700083 0.622586 2.969032
lowerneck -22.747011 -5.081802 -13.421761
upperneck 20.822119 -6.181769 14.078020
head 11.200750 -2.247091 6.362323
rclavicle -0.000000 -0.000000
rhumerus -50.322361 9.807832 -93.854866
rradius 44.606647
rwrist -23.486101
rhand -34.076130 -25.156012
rfingers 7.837522
rthumb -4.688420 -58.086819
lclavicle -0.000000 -0.000000
lhumerus -37.393951 -11.584981 98.196999
lradius 25.311550
lwrist -1.419759
lhand -12.013761 -25.510761
lfingers 7.837522
lthumb 16.605600 6.861712
rfemur -12.791240 -2.258388 18.099289
rtibia 70.889610
rfoot 0.353692 -11.786830
rtoes -16.226871
lfemur -31.612131 9.294978 -30.128670
ltibia 37.916454
lfoot -14.312651 8.062846
ltoes -3.028487
263
root 9.795380 16.831100 0.239794 7.773680 -6.926680 0.373601
lowerback -6.015273 0.710860 -1.549988
upperback -1.758757 0.995277 1.955536
thorax 1.506241 0.496886 2.946845
lowerneck -22.918831 -5.005814 -13.263250
upperneck 21.317560 -6.077621 13.778270
head 11.378731 -2.215279 6.257141
rclavicle -0.000000 0.000000
rhumerus -50.427849 9.610336 -93.538391
rradius 44.885834
rwrist -23.412180
rhand -34.168091 -26.334110
rfingers 7.837522
rthumb -4.777168 -59.263050
lclavicle -0.000000 0.000000
lhumerus -36.646389 -12.203290 98.260803
lradius 25.616581
lwrist -1.131361
lhand -11.902880 -25.111019
lfingers 7.837522
lthumb 16.712410 7.253444
rfemur -14.122020 -2.208525 19.103151
rtibia 71.688652
rfoot -0.868371 -12.280070
rtoes -17.852230
lfemur -30.682520 9.274563 -29.450741
ltibia 37.340931
lfoot -14.391960 7.922629
ltoes -3.105421
264
root 9.811630 16.847500 0.364269 7.572470 -6.721260 0.579356
lowerback -5.842463 0.439434 -1.918114
upperback -1.704373 0.648636 2.136673
thorax 1.479346 0.323277 3.317743
lowerneck -23.331440 -4.949593 -13.230801
upperneck 21.871080 -5.924358 13.435511
head 11.619960 -2.169233 6.168074
rclavicle 0.000000 -0.000000
rhumerus -50.285179 9.259119 -92.899178
rradius 44.891438
rwrist -23.220119
rhand -34.065239 -26.273170
rfingers 7.837522
rthumb -4.677838 -59.204201
lclavicle 0.000000 -0.000000
lhumerus -35.828762 -13.080210 98.622589
lradius 25.886301
lwrist 0.041542
lhand -12.548250 -25.439920
lfingers 7.837522
lthumb 16.090691 6.970601
rfemur -15.386030 -2.386791 19.037811
rtibia 72.352394
rfoot -2.694043 -12.485220
rtoes -16.961451
lfemur -29.602982 9.248910 -29.700880
ltibia 36.692921
lfoot -14.768050 7.580617
ltoes -2.617615
265
root 9.830150 16.863100 0.491372 7.394690 -6.615190 1.289130
lowerback -5.922257 0.243828 -2.643487
upperback -1.623501 0.430071 1.999987
thorax 1.616758 0.210060 3.573559
lowerneck -23.304710 -4.856610 -13.070090
upperneck 21.964689 -5.791731 13.178220
head 11.616440 -2.126443 6.067303
rclavicle 0.000000 0.000000
rhumerus -50.265491 9.340771 -92.700958
rradius 45.091530
rwrist -23.837662
rhand -34.821053 -26.308592
rfingers 7.837522
rthumb -5.407754 -59.223782
lclavicle 0.000000 0.000000
lhumerus -34.775291 -13.589621 98.559013
lradius 25.994871
lwrist 0.523618
lhand -13.253461 -26.519682
lfingers 7.837522
lthumb 15.411220 5.938999
rfemur -16.767851 -2.464561 18.320061
rtibia 72.952995
rfoot -4.633805 -12.405030
rtoes -16.698330
lfemur -28.571291 9.256577 -30.591549
ltibia 36.131371
lfoot -15.366120 7.208652
ltoes -1.021994
266
root 9.850030 16.871300 0.616967 7.245110 -6.458460 1.505170
lowerback -5.975607 0.069672 -2.773254
upperback -1.507077 0.206481 1.971915
thorax 1.782528 0.093700 3.604172
lowerneck -23.253561 -4.727074 -13.073170
upperneck 22.036631 -5.625576 13.201430
head 11.610060 -2.049641 6.105627
rclavicle 0.000000 0.000000
rhumerus -50.203781 9.497456 -92.646294
rradius 45.256088
rwrist -24.311211
rhand -35.284924 -26.350170
rfingers 7.837522
rthumb -5.855575 -59.254692
lclavicle 0.000000 0.000000
lhumerus -33.576401 -13.865610 98.282364
lradius 25.983759
lwrist 0.610266
lhand -13.059421 -26.756071
lfingers 7.837522
lthumb 15.598111 5.689530
rfemur -18.075199 -2.260049 18.307961
rtibia 73.366806
rfoot -6.586954 -12.615351
rtoes -15.886750
lfemur -27.468210 9.236161 -30.913080
ltibia 35.431549
lfoot -15.708550 7.145204
ltoes -0.182945
